<svg xmlns="http://www.w3.org/2000/svg" class="clap-svg" width="32" height="36" viewBox="0 0 28 28" fill="none"><g clip-path="url(#clip0)">
	<path class="clap-svg--background" d="M26.5 12l-4-4-1-1h-1l-1 .5v2L18 8l-2-2-2-1.5-1 .5-1 1.5-2-2-1.5.5L8 6.5 9 8l-1.5.5L6 8 5 9l-.5 1.5 1 1-1 .5-.5 1.5L5 15l.5 1h-1l-1 1.5 1.5 2 5 5 2.5 2 2.5 1h3.5l3-2 1-1.5 1-1 1.5-1 2-2.5.5-4-1-3.5z" fill="none"/>
	<mask id="a" maskUnits="userSpaceOnUse" x="3" y="3" width="25" height="26"><path class="clap-svg--outline" d="M4.876 15.577l-.82-.825c-.773-.776-.87-2.038-.146-2.863.29-.291.628-.534 1.014-.63l-.193-.195c-.772-.776-.869-2.038-.145-2.863.724-.825 2.028-.922 2.848-.145l.097.097.048.048c.242-.243.531-.388.87-.485l-.194-.194c-.772-.777-.869-2.038-.145-2.863.387-.437.918-.68 1.449-.68.53 0 1.11.194 1.496.583l.966.97C12.262 4.61 13.034 3.98 14 3.98c.531 0 1.062.194 1.448.583l3.67 3.688a2.4 2.4 0 01.772-1.553 1.497 1.497 0 012.075.048l3.476 3.494a8.346 8.346 0 01.435 11.501c-.676.728-1.448 1.359-2.366 1.796-.338.63-.724 1.213-1.158 1.746a9.128 9.128 0 01-2.414 1.845c-3.138 1.601-6.952.97-9.462-1.553l-6.517-6.551c-.773-.777-.87-2.039-.145-2.863.338-.292.676-.486 1.062-.583zM6.13 8.541c-.29 0-.58.145-.772.34a1.075 1.075 0 00.096 1.504l1.4 1.407.724.728a4.02 4.02 0 01.58-.388c.096-.049.193-.049.29-.097l-.821-.825a1.287 1.287 0 01-.242-.291s0-.049-.048-.049l-.145-.291s0-.049-.048-.049A1.72 1.72 0 017 9.851v-.097-.243-.145c0-.097.048-.146.048-.243v-.097l-.193-.194a.779.779 0 00-.724-.291zM25.2 21.158a7.36 7.36 0 00-.386-10.142l-3.476-3.494a.547.547 0 00-.386-.146.437.437 0 00-.338.146c-.628.582-.676 1.601-.097 2.232l.049.048 3.282 3.3a.47.47 0 010 .68.465.465 0 01-.676 0l-3.282-3.3-5.07-5.095a1.061 1.061 0 00-.723-.292c-.58 0-1.063.486-1.063 1.068a.99.99 0 00.29.728l5.407 5.386a.47.47 0 010 .68.465.465 0 01-.676 0L12.6 7.473 10.428 5.29c-.194-.194-.483-.34-.773-.29-.29 0-.58.145-.772.339a1.075 1.075 0 00.096 1.504l1.449 1.408 6.13 6.211a.47.47 0 010 .68.465.465 0 01-.675 0l-6.18-6.212c-.193-.194-.482-.34-.772-.291-.29 0-.58.145-.772.34-.049.048-.097.097-.097.145 0 0 0 .049-.048.049 0 .048-.048.048-.048.097v.048c0 .049 0 .097-.049.146v.242c0 .049 0 .097.049.146V9.9c0 .048.048.097.048.145v.049c.048.145.145.242.241.34l2.028 2.038 4.055 4.076a.47.47 0 010 .68.465.465 0 01-.676 0L9.607 13.15c-.097-.097-.193-.194-.338-.243-.145-.048-.241-.048-.386-.097h-.048c-.049 0-.145 0-.194.049a.917.917 0 00-.53.34c-.145.145-.194.339-.242.533v.437c0 .048 0 .097.048.097 0 .049 0 .049.049.097.048.048.048.048.048.097s.048.049.048.097c0 .049.048.049.048.097 0 .049.097.146.097.194l6.565 6.551a7.19 7.19 0 008.207 1.408c.049 0 .097-.049.145-.049.773-.388 1.497-.97 2.076-1.601zM4.683 18.343l6.517 6.6c2.172 2.232 5.552 2.766 8.352 1.359.772-.389 1.496-.97 2.124-1.602.145-.145.29-.34.386-.485a8.45 8.45 0 01-2.22.291h-.532c-.144 0-.338 0-.482-.048h-.049c-.29-.049-.579-.098-.917-.146-.048 0-.096-.049-.145-.049l-.434-.145a.365.365 0 01-.193-.097c-.193-.097-.435-.146-.628-.243l-.29-.145-.29-.146c-.144-.097-.289-.145-.434-.243-.096-.048-.193-.097-.241-.145a2.655 2.655 0 01-.435-.34c-.048-.048-.144-.097-.193-.145-.145-.146-.338-.292-.482-.437 0 0-.049 0-.049-.049l-6.517-6.6-.096-.096c-.097-.146-.242-.243-.29-.437 0-.049-.048-.049-.048-.097C7.048 14.8 7 14.704 7 14.607v-.049c-.048-.097-.048-.194-.048-.291v-.049V13.878c0-.096 0-.193.048-.29 0-.049 0-.097.048-.146 0-.049 0-.097.049-.194l-.821-.825c-.193-.194-.483-.34-.773-.291-.29 0-.579.145-.772.34a1.075 1.075 0 00.097 1.504l2.075 2.086 4.056 4.077a.47.47 0 010 .68.465.465 0 01-.676 0l-4.055-4.077c-.193-.194-.483-.34-.773-.291-.29 0-.58.145-.772.34-.483.485-.435 1.164 0 1.552z" fill="#fff"/></mask><g mask="url(#a)"><path d="M4.876 15.577l-.82-.825c-.773-.776-.87-2.038-.146-2.863.29-.291.628-.534 1.014-.63l-.193-.195c-.772-.776-.869-2.038-.145-2.863.724-.825 2.028-.922 2.848-.145l.097.097.048.048c.242-.243.531-.388.87-.485l-.194-.194c-.772-.777-.869-2.038-.145-2.863.387-.437.918-.68 1.449-.68.53 0 1.11.194 1.496.583l.966.97C12.262 4.61 13.034 3.98 14 3.98c.531 0 1.062.194 1.448.583l3.67 3.688a2.4 2.4 0 01.772-1.553 1.497 1.497 0 012.075.048l3.476 3.494a8.346 8.346 0 01.435 11.501c-.676.728-1.448 1.359-2.366 1.796-.338.63-.724 1.213-1.158 1.746a9.128 9.128 0 01-2.414 1.845c-3.138 1.601-6.952.97-9.462-1.553l-6.517-6.551c-.773-.777-.87-2.039-.145-2.863.338-.292.676-.486 1.062-.583zM6.13 8.541c-.29 0-.58.145-.772.34a1.075 1.075 0 00.096 1.504l1.4 1.407.724.728a4.02 4.02 0 01.58-.388c.096-.049.193-.049.29-.097l-.821-.825a1.287 1.287 0 01-.242-.291s0-.049-.048-.049l-.145-.291s0-.049-.048-.049A1.72 1.72 0 017 9.851v-.097-.243-.145c0-.097.048-.146.048-.243v-.097l-.193-.194a.779.779 0 00-.724-.291zM25.2 21.158a7.36 7.36 0 00-.386-10.142l-3.476-3.494a.547.547 0 00-.386-.146.437.437 0 00-.338.146c-.628.582-.676 1.601-.097 2.232l.049.048 3.282 3.3a.47.47 0 010 .68.465.465 0 01-.676 0l-3.282-3.3-5.07-5.095a1.061 1.061 0 00-.723-.292c-.58 0-1.063.486-1.063 1.068a.99.99 0 00.29.728l5.407 5.386a.47.47 0 010 .68.465.465 0 01-.676 0L12.6 7.473 10.428 5.29c-.194-.194-.483-.34-.773-.29-.29 0-.58.145-.772.339a1.075 1.075 0 00.096 1.504l1.449 1.408 6.13 6.211a.47.47 0 010 .68.465.465 0 01-.675 0l-6.18-6.212c-.193-.194-.482-.34-.772-.291-.29 0-.58.145-.772.34-.049.048-.097.097-.097.145 0 0 0 .049-.048.049 0 .048-.048.048-.048.097v.048c0 .049 0 .097-.049.146v.242c0 .049 0 .097.049.146V9.9c0 .048.048.097.048.145v.049c.048.145.145.242.241.34l2.028 2.038 4.055 4.076a.47.47 0 010 .68.465.465 0 01-.676 0L9.607 13.15c-.097-.097-.193-.194-.338-.243-.145-.048-.241-.048-.386-.097h-.048c-.049 0-.145 0-.194.049a.917.917 0 00-.53.34c-.145.145-.194.339-.242.533v.437c0 .048 0 .097.048.097 0 .049 0 .049.049.097.048.048.048.048.048.097s.048.049.048.097c0 .049.048.049.048.097 0 .049.097.146.097.194l6.565 6.551a7.19 7.19 0 008.207 1.408c.049 0 .097-.049.145-.049.773-.388 1.497-.97 2.076-1.601zM4.683 18.343l6.517 6.6c2.172 2.232 5.552 2.766 8.352 1.359.772-.389 1.496-.97 2.124-1.602.145-.145.29-.34.386-.485a8.45 8.45 0 01-2.22.291h-.532c-.144 0-.338 0-.482-.048h-.049c-.29-.049-.579-.098-.917-.146-.048 0-.096-.049-.145-.049l-.434-.145a.365.365 0 01-.193-.097c-.193-.097-.435-.146-.628-.243l-.29-.145-.29-.146c-.144-.097-.289-.145-.434-.243-.096-.048-.193-.097-.241-.145a2.655 2.655 0 01-.435-.34c-.048-.048-.144-.097-.193-.145-.145-.146-.338-.292-.482-.437 0 0-.049 0-.049-.049l-6.517-6.6-.096-.096c-.097-.146-.242-.243-.29-.437 0-.049-.048-.049-.048-.097C7.048 14.8 7 14.704 7 14.607v-.049c-.048-.097-.048-.194-.048-.291v-.049V13.878c0-.096 0-.193.048-.29 0-.049 0-.097.048-.146 0-.049 0-.097.049-.194l-.821-.825c-.193-.194-.483-.34-.773-.291-.29 0-.579.145-.772.34a1.075 1.075 0 00.097 1.504l2.075 2.086 4.056 4.077a.47.47 0 010 .68.465.465 0 01-.676 0l-4.055-4.077c-.193-.194-.483-.34-.773-.291-.29 0-.58.145-.772.34-.483.485-.435 1.164 0 1.552z" stroke="#000" stroke-width="4"/></g><mask id="b" maskUnits="userSpaceOnUse" x="0" y="0" width="4" height="4"><path d="M3.717 3.737a.465.465 0 01-.676 0L.145.825a.47.47 0 010-.68.465.465 0 01.676 0l2.896 2.912a.47.47 0 010 .68z" fill="#fff"/></mask><g mask="url(#b)"><path d="M3.041 3.737l.71-.706-.71.706zM.145.825l-.71.705.71-.705zm4.281 3.617a1.465 1.465 0 01-2.094 0l1.418-1.41a.525.525 0 00-.37-.15.525.525 0 00-.372.15l1.418 1.41zm-2.094 0L-.564 1.53.854.12 3.75 3.03l-1.418 1.41zM-.564 1.53a1.47 1.47 0 010-2.09L.854.85A.52.52 0 001 .486.52.52 0 00.854.12L-.564 1.53zm0-2.09a1.465 1.465 0 012.094 0L.112.85c.084.086.216.15.37.15A.525.525 0 00.855.85L-.564-.56zm2.094 0l2.896 2.912-1.418 1.41L.112.851 1.53-.56zm2.896 2.912a1.47 1.47 0 010 2.09l-1.418-1.41a.52.52 0 00-.146.365c0 .15.062.28.146.365l1.418-1.41z" fill="#000"/></g><mask id="c" maskUnits="userSpaceOnUse" x="-1" y="3" width="5" height="3"><path d="M0 4.173c.097-.242.386-.388.628-.29l2.413.97c.242.097.387.388.29.63-.097.195-.241.292-.434.292-.049 0-.145 0-.194-.049L.29 4.756c-.242-.049-.387-.291-.29-.583z" fill="#fff"/></mask><g mask="url(#c)"><path d="M0 4.173l-.95-.314.01-.028.01-.027.93.37zm.628-.29l-.373.927.373-.928zm2.413.97l.373-.928-.373.928zm.29.63l.93.37-.016.039-.019.037-.895-.445zm-.628.243l.373-.928.191.077.145.146-.709.705zM.29 4.756l.197-.98.09.017.086.035-.373.928zm-1.22-.952c.274-.687 1.108-1.18 1.93-.85L.256 4.81c.177.071.337.04.434-.007a.48.48 0 00.24-.26l-1.858-.74zM1 2.954l2.414.97-.746 1.857L.255 4.81 1 2.954zm2.414.97c.69.278 1.17 1.114.846 1.93l-1.858-.74a.537.537 0 00.006.426.48.48 0 00.26.24l.746-1.855zm.812 2.005a1.545 1.545 0 01-.52.604c-.254.17-.537.242-.81.242v-2a.558.558 0 00-.46.263l1.79.891zm-1.33.846c-.018 0-.132.002-.261-.02a1.172 1.172 0 01-.64-.324l1.417-1.41a.87.87 0 00-.447-.239c-.056-.01-.098-.007-.068-.007v2zm-.566-.121l-2.413-.97.746-1.856 2.413.97-.746 1.856zM.093 5.736a1.388 1.388 0 01-.96-.714 1.482 1.482 0 01-.082-1.163l1.898.63a.522.522 0 00-.046-.4.612.612 0 00-.416-.314L.093 5.736z" fill="#000"/></g><mask id="d" maskUnits="userSpaceOnUse" x="3" y="0" width="3" height="4"><path d="M5.503 3.348c-.241.097-.53 0-.627-.242L3.717.679c-.096-.242 0-.534.242-.63.241-.098.53 0 .627.242l1.159 2.426c.096.243 0 .534-.242.631z" fill="#fff"/></mask><g mask="url(#d)"><path d="M4.876 3.106l.902-.431.015.03.012.03-.93.37zM3.717.679l-.902.431-.015-.03-.012-.031.93-.37zm.87-.388l-.903.431-.015-.03L3.657.66l.93-.37zm1.158 2.426l.902-.43.015.03.012.03-.93.37zm.131 1.56c-.664.266-1.594.041-1.93-.802l1.859-.74a.563.563 0 00-.322-.318.486.486 0 00-.353.003l.746 1.856zm-1.903-.74L2.815 1.11 4.62.248l1.158 2.427-1.805.862zM2.788 1.049c-.262-.658-.046-1.59.798-1.928L4.332.976A.562.562 0 004.65.653.478.478 0 004.646.31l-1.858.739zm.798-1.928c.664-.268 1.594-.043 1.93.8l-1.859.74c.067.169.2.274.322.32.116.042.24.04.353-.005L3.586-.879zm1.903.74l1.158 2.425-1.805.862L3.684.722 5.489-.14zm1.185 2.487c.262.658.046 1.589-.798 1.928L5.13 2.42a.562.562 0 00-.318.323.478.478 0 00.004.344l1.858-.74z" fill="#000"/></g></g><defs><clipPath id="clip0"><path fill="#fff" d="M0 0h28v28H0z"/></clipPath></defs></svg>