<svg width="154" height="80" viewBox="0 0 154 80" fill="none" xmlns="http://www.w3.org/2000/svg">
<path fill-rule="evenodd" clip-rule="evenodd" d="M87.8546 21.7694V28.6748L88.814 28.5955L89.7735 28.5164L89.9014 23.6144L90.0293 18.7124L93.7563 23.6144C97.0888 27.9976 97.5695 28.5248 98.2977 28.5963L99.1121 28.6764V21.7702V14.8642H98.222H97.3316L97.2625 19.9273L97.1932 24.9903L93.3554 19.9293C89.753 15.1784 89.4667 14.8681 88.6861 14.866L87.8546 14.8642V21.7694ZM151.381 15.1876C151.313 15.3654 151.288 18.4373 151.325 22.0136L151.394 28.5164L152.353 28.5955L153.313 28.6748V21.7694V14.8642H152.409C151.912 14.8642 151.45 15.0097 151.381 15.1876ZM114.558 17.5436C114.558 18.9328 114.55 18.9471 113.79 18.9471C113.108 18.9471 113.022 19.0321 113.022 19.7127C113.022 20.3932 113.108 20.4782 113.79 20.4782H114.558L114.559 22.8386C114.561 25.6668 114.882 26.9657 115.81 27.8912C116.591 28.6697 118.11 29.0201 119.291 28.6945C119.939 28.5154 120.07 28.3398 120.137 27.562L120.215 26.6416L119.307 26.9192C118.171 27.267 117.213 26.8886 116.855 25.9511C116.717 25.5895 116.604 24.21 116.604 22.8858V20.4782H118.267H119.93V19.7127V18.9471H118.267H116.604V17.5436V16.1401H115.581H114.558V17.5436ZM103.292 19.3335C100.473 21.0189 100.132 25.5616 102.666 27.6878C103.425 28.3255 104.889 28.8963 105.764 28.8963C106.629 28.8963 108.039 28.3457 108.672 27.7605L109.346 27.1371V27.8907C109.346 28.5814 109.42 28.644 110.242 28.644H111.137V23.7955V18.9471H110.242C109.441 18.9471 109.346 19.0199 109.346 19.6295V20.3121L108.77 19.789C107.83 18.9344 107.153 18.6917 105.717 18.6942C104.725 18.696 104.069 18.8693 103.292 19.3335ZM134.82 19.545L133.935 20.4272V19.6871C133.935 19.0114 133.857 18.9471 133.04 18.9471H132.144V23.7955V28.644H133.04H133.935V25.9697C133.935 21.7403 134.902 20.2001 137.316 20.5849L138.316 20.7444L138.237 19.7821C138.157 18.8264 138.148 18.819 136.93 18.7412C135.824 18.6708 135.617 18.7494 134.82 19.545ZM141.018 19.337C139.459 20.2692 138.511 22.2734 138.712 24.2158C139.043 27.4135 141.786 29.4468 144.709 28.6618C145.267 28.512 146.028 28.1076 146.401 27.7633L147.078 27.1371V27.906C147.078 28.6384 147.123 28.671 148.037 28.5955L148.997 28.5164L149.066 23.7318L149.136 18.9471H148.107C147.162 18.9471 147.078 19.003 147.078 19.6295V20.3121L146.502 19.789C145.561 18.9344 144.885 18.6917 143.449 18.6942C142.455 18.696 141.8 18.8693 141.018 19.337ZM121.816 22.4599C121.816 26.4497 122.101 27.3599 123.635 28.2579C124.861 28.9754 127.099 28.9244 128.183 28.1545C129.586 27.1581 129.838 26.3468 129.955 22.4559L130.061 18.9471H129.009H127.956V22.022C127.956 25.9835 127.562 26.8577 125.775 26.8577C125.442 26.8577 124.847 26.5806 124.453 26.242C123.744 25.6346 123.733 25.5816 123.645 22.2867L123.555 18.9471H122.686H121.816V22.4599ZM108.105 21.1427C109.974 22.8037 109.589 25.6752 107.365 26.6561C106.363 27.0983 106.13 27.1152 105.18 26.8131C102.585 25.9881 102.141 22.3755 104.452 20.8926C105.326 20.332 107.348 20.4703 108.105 21.1427ZM146.098 21.4642C147.384 22.9001 147.369 24.7418 146.06 26.0473C143.466 28.635 139.468 25.5308 141.067 22.1698C141.647 20.9511 142.615 20.442 144.121 20.5647C145.142 20.6482 145.521 20.8204 146.098 21.4642ZM87.8546 39.521V46.2833H88.878H89.9014V43.3488V40.4142H93.6113H97.3211V43.3488V46.2833H98.2166H99.1121V39.521V32.7588H98.2166H97.3211V35.5658V38.3727H93.6113H89.9014V35.5658V32.7588H88.878H87.8546V39.521ZM101.722 33.065C101.553 33.2334 101.415 33.6698 101.415 34.0347C101.415 34.878 101.848 35.3106 102.694 35.3106C103.54 35.3106 103.973 34.878 103.973 34.0347C103.973 33.1913 103.54 32.7588 102.694 32.7588C102.328 32.7588 101.891 32.8966 101.722 33.065ZM115.231 35.183C115.231 36.5722 115.223 36.5865 114.463 36.5865C113.757 36.5865 113.696 36.6574 113.696 37.4796C113.696 38.2944 113.761 38.3727 114.436 38.3727H115.175L115.278 41.2435C115.392 44.4618 115.761 45.5058 117.013 46.1514C117.783 46.5485 119.262 46.6508 120.284 46.3777C120.734 46.2573 120.859 46.0394 120.859 45.3764C120.859 44.5532 120.834 44.5333 119.978 44.6719C117.789 45.026 117.278 44.2904 117.278 40.785V38.3727H118.941H120.604V37.4796V36.5865H118.941H117.278V35.183V33.7795H116.254H115.231V35.183ZM107.635 36.5987C106.453 36.9601 105.764 37.9591 105.764 39.3118C105.764 40.7028 106.487 41.5191 108.1 41.9493C110.218 42.5143 110.881 42.9058 110.881 43.5909C110.881 44.8773 108.801 45.1467 106.761 44.1248L105.508 43.4975V44.4784C105.508 45.3608 105.605 45.5058 106.468 45.9169C107.71 46.5092 109.805 46.6799 111 46.2861C112.642 45.7459 113.384 43.8203 112.562 42.2344C112.194 41.525 111.223 40.9996 109.114 40.3688C107.611 39.9194 107.217 39.2786 108.031 38.6118C108.773 38.0048 109.346 38.002 111.073 38.597L112.416 39.0599V38.1193C112.416 37.3599 112.291 37.1218 111.767 36.8838C110.838 36.4617 108.591 36.3065 107.635 36.5987ZM124.84 36.712C123.398 37.2247 122.626 37.8731 121.957 39.1347C120.885 41.1555 121.396 43.8685 123.119 45.3149C125.613 47.4076 129.686 46.7005 131.139 43.9226C131.823 42.6154 131.887 40.417 131.275 39.2398C130.415 37.5847 128.318 36.316 126.488 36.3438C126.136 36.3494 125.395 36.515 124.84 36.712ZM136.553 36.8253C136.108 37.0958 135.622 37.5261 135.473 37.7812C135.243 38.1765 135.202 38.1227 135.195 37.4158C135.187 36.6196 135.146 36.5865 134.164 36.5865H133.14V41.4349V46.2833H134.164H135.187V43.4511C135.187 40.1256 135.524 39.1454 136.886 38.5006C137.577 38.1734 137.946 38.1372 138.529 38.3401C139.276 38.5996 139.281 38.5945 139.281 37.6238C139.281 36.8256 139.175 36.6179 138.705 36.4921C137.783 36.2456 137.412 36.303 136.553 36.8253ZM101.671 41.4349V46.2833H102.694H103.717V41.4349V36.5865H102.694H101.671V41.4349ZM128.422 38.7889C129.08 39.2189 129.814 40.6053 129.814 41.4178C129.814 42.2015 129.202 43.5284 128.59 44.0722C127.276 45.2394 124.662 44.7191 123.797 43.1183C123.236 42.0787 123.388 40.1358 124.091 39.3483C125.177 38.1334 127.049 37.8917 128.422 38.7889ZM87.8546 57.8941V64.7839H88.8721H89.8899L89.9595 60.1662L90.0293 55.5487L91.4181 58.1377C92.7365 60.5954 92.8452 60.7227 93.5639 60.65C94.2391 60.5816 94.4766 60.2861 95.7571 57.9185L97.1932 55.2636L97.2628 60.0238L97.3324 64.7839H98.2222H99.1121V57.8941V51.0042H98.267C97.4421 51.0042 97.3764 51.0894 95.522 54.5578L93.622 58.1115L92.0398 55.2596C91.1694 53.691 90.2801 52.0918 90.0634 51.7059C89.7492 51.1461 89.4856 51.0042 88.7621 51.0042H87.8546V57.8941ZM112.497 55.3295C111.494 55.9394 111.137 56.5707 111.137 57.7353C111.137 59.0988 111.967 59.8526 114.207 60.526C116.039 61.0764 116.13 61.1397 116.206 61.9226C116.275 62.62 116.179 62.7836 115.569 63.0147C114.714 63.3393 113.435 63.136 112.119 62.4661C111.59 62.1969 111.095 61.9769 111.019 61.9769C110.943 61.9769 110.881 62.3765 110.881 62.8649C110.881 63.6509 111.006 63.8173 111.969 64.3162C113.25 64.9804 115.443 65.0914 116.714 64.5565C118.32 63.8811 118.825 61.6171 117.675 60.2537C117.22 59.7148 116.521 59.3585 115.117 58.9518C113.441 58.4662 113.184 58.3143 113.184 57.8111C113.184 57.4919 113.322 57.0928 113.491 56.9244C113.955 56.4615 115.77 56.5572 116.84 57.1009L117.789 57.5837V56.5776C117.789 55.6707 117.702 55.5349 116.902 55.2016C115.618 54.6663 113.485 54.7283 112.497 55.3295ZM121.818 55.3598C118.944 56.8731 118.489 61.5411 121.001 63.7405C122.584 65.1269 125.122 65.369 127.239 64.3358C128.057 63.9367 128.16 63.7724 128.233 62.7453L128.314 61.5995L127.721 62.154C126.53 63.2669 124.655 63.5618 123.043 62.8902C122.257 62.5626 121.371 61.4094 121.371 60.7138C121.371 60.5392 122.632 60.4458 124.985 60.4458H128.598L128.483 59.0577C128.342 57.3605 127.419 55.8536 126.153 55.2545C124.951 54.6859 123.009 54.7331 121.818 55.3598ZM143.021 55.3394C142.343 55.7521 142.19 55.7753 142.19 55.466C142.19 55.2029 141.915 55.0871 141.294 55.0871H140.399V59.9355V64.7839H141.275H142.151L142.234 61.2178C142.308 58.0525 142.375 57.5952 142.829 57.151C143.71 56.2892 144.63 56.2218 145.375 56.9649C146.012 57.6006 146.027 57.6981 146.027 61.1999V64.7839H147.051H148.074V61.1233C148.074 57.7573 148.116 57.4248 148.599 56.9894C149.209 56.4385 150.657 56.3642 151.248 56.8534C151.588 57.1346 151.656 57.8251 151.656 60.9873V64.7839H152.697H153.738L153.657 60.6809L153.575 56.5776L152.619 55.7049C151.809 54.9651 151.476 54.8319 150.437 54.8319C149.565 54.8319 148.954 55.0072 148.323 55.439L147.434 56.0458L146.711 55.439C145.795 54.6703 144.192 54.6272 143.021 55.3394ZM101.46 58.851C101.535 62.2791 101.594 62.6871 102.122 63.4243C103.422 65.2435 106.523 65.5025 108.233 63.9352C109.355 62.9078 109.588 61.9057 109.596 58.0854L109.602 55.0871H108.598H107.595L107.511 58.5552C107.432 61.8424 107.396 62.0486 106.823 62.5105C106.002 63.173 104.915 63.1227 104.052 62.3819C103.343 61.7746 103.332 61.7215 103.244 58.4266L103.154 55.0871H102.266H101.378L101.46 58.851ZM130.676 58.6723C130.676 62.619 130.865 63.3174 132.186 64.2554C133.975 65.5262 136.999 64.9888 138.088 63.2064C138.544 62.4613 138.606 61.9233 138.607 58.7234L138.608 55.0871H137.712H136.817V58.005C136.817 61.8912 136.364 62.9701 134.727 62.9895C132.859 63.0117 132.467 62.1737 132.467 58.162V55.0871H131.572H130.676V58.6723ZM125.069 56.724C125.942 57.0879 126.488 57.7774 126.488 58.5152C126.488 58.8515 126.08 58.9148 123.913 58.9148C121.36 58.9148 121.338 58.9097 121.511 58.3406C121.607 58.0247 121.917 57.5141 122.2 57.2058C122.645 56.7205 122.962 56.5783 124.002 56.3977C124.112 56.3785 124.592 56.5255 125.069 56.724Z" fill="black"/>
<path d="M144.948 46.0966L140.606 36.3637H142.698L145.896 44.0392L148.935 36.3637H150.909L146.646 46.334C145.817 48.2727 144.475 49.697 142.303 49.697C141.869 49.697 141.356 49.6574 140.922 49.4596V47.7188C141.435 47.9166 141.909 47.9561 142.382 47.9561C143.488 47.9561 144.317 47.3231 144.948 46.0966Z" fill="black"/>
<path d="M47.9386 38.1156L53.7471 34.7622L49.6207 35.1174L49.0015 34.0363L51.3699 30.6115L45.5847 34.0056L44.8104 32.7498L53.1463 27.8983L53.9352 29.1796L51.0483 33.6066L56.2599 33.2385L56.9662 34.5679L48.6303 39.4194L47.9386 38.1156ZM44.8139 47.2441L53.1498 52.0956L53.9387 50.8143L51.0167 46.4485L56.2634 46.7554L56.9697 45.426L48.6338 40.5745L47.9421 41.8783L53.7506 45.2317L49.6242 44.8766L49.005 45.9576L51.3733 49.3824L45.5882 45.9883L44.8139 47.2441ZM36.1836 47.8246V57.5277L37.6788 57.5758L39.9684 52.842L42.3282 57.5758L43.8234 57.5277V47.8246L42.3574 47.8727L42.3807 54.6202L40.6227 50.8403H39.3843L37.6263 54.6202L37.6495 47.8727L36.1836 47.8246ZM31.3697 40.5805L23.0338 45.4321L23.7401 46.7614L28.9517 46.3934L26.0648 50.8204L26.8537 52.1017L35.1896 47.2501L34.4153 45.9944L28.6302 49.3885L30.9985 45.9637L30.3793 44.8826L26.2529 45.2378L32.0614 41.8843L31.3697 40.5805ZM35.1861 32.7559L26.8502 27.9044L26.0613 29.1857L28.9833 33.5515L23.7366 33.2446L23.0303 34.574L31.3662 39.4255L32.0579 38.1217L26.2494 34.7683L30.3758 35.1234L30.995 34.0424L28.6267 30.6176L34.4118 34.0117L35.1861 32.7559ZM43.8164 32.1754V22.4723L42.3212 22.4242L40.0316 27.158L37.6718 22.4242L36.1766 22.4723V32.1754L37.6426 32.1273L37.6193 25.3798L39.3773 29.1597H40.6157L42.3737 25.3798L42.3505 32.1273L43.8164 32.1754Z" fill="black"/>
<path d="M56.4646 16.5852L52.052 25.0376L50.647 24.2411L52.4784 20.733L48.6667 18.7171L46.8353 22.2252L45.3866 21.5124L49.7992 13.0601L51.2479 13.7728L49.4164 17.281L53.2282 19.2969L55.0597 15.7887L56.4646 16.5852ZM64.5052 25.6029L61.2638 27.8527L58.8193 24.2849L62.0607 22.0351L61.107 20.7264L53.2974 26.1469L54.2511 27.4556L57.4924 25.2059L59.9369 28.7737L56.6956 31.0234L57.5719 32.3858L65.3815 26.9653L64.5052 25.6029ZM68.3379 38.7109L64.429 39.187L63.9117 34.8845L67.8206 34.4084L67.5803 32.8035L58.1625 33.9506L58.4028 35.5554L62.3116 35.0794L62.8289 39.3819L58.9201 39.858L59.0671 41.4743L68.4848 40.3272L68.3379 38.7109ZM65.6799 52.1103L61.9989 50.7037L63.5272 46.6519L67.2083 48.0585L67.7364 46.5251L58.8676 43.136L58.3395 44.6695L62.0204 46.0761L60.492 50.1278L56.8111 48.7212L56.195 50.2211L65.0638 53.6102L65.6799 52.1103ZM57.14 62.7319L54.53 59.7647L57.754 56.8919L60.364 59.8591L61.5396 58.7482L55.2512 51.5993L54.0756 52.7101L56.6855 55.6772L53.4615 58.5501L50.8516 55.583L49.6136 56.623L55.9021 63.7719L57.14 62.7319ZM44.6743 68.143L43.7331 64.2948L47.9142 63.2589L48.8554 67.107L50.4093 66.6732L48.1416 57.4019L46.5878 57.8356L47.529 61.6836L43.3479 62.7196L42.4067 58.8716L40.8303 59.2134L43.098 68.4848L44.6743 68.143ZM31.1381 67.104L32.0813 63.2563L36.2619 64.2945L35.3187 68.1422L36.8948 68.4848L39.1673 59.2147L37.5912 58.872L36.648 62.7195L32.4674 61.6813L33.4106 57.8338L31.857 57.3992L29.5845 66.6694L31.1381 67.104ZM19.6318 59.8529L22.2434 56.8871L25.4659 59.7617L22.8543 62.7275L24.0917 63.7681L30.3838 56.6225L29.1464 55.5819L26.5349 58.5476L23.3125 55.673L25.924 52.7073L24.7489 51.5958L18.4568 58.7415L19.6318 59.8529ZM12.791 48.0507L16.4727 46.646L17.999 50.6985L14.3172 52.1032L14.9325 53.6035L23.8031 50.2191L23.1878 48.7188L19.5062 50.1235L17.9799 46.0709L21.6615 44.6663L21.1342 43.1325L12.2636 46.5169L12.791 48.0507ZM12.1825 34.4006L16.0911 34.8787L15.5716 39.181L11.663 38.7029L11.5152 40.319L20.9323 41.4711L21.0801 39.8549L17.1716 39.3768L17.6912 35.0745L21.5997 35.5526L21.8408 33.9479L12.4236 32.7958L12.1825 34.4006ZM17.9457 22.0292L21.186 24.2807L18.7396 27.8472L15.4994 25.5957L14.6224 26.9577L22.4291 32.3823L23.3062 31.0203L20.0661 28.7689L22.5124 25.2023L25.7525 27.4538L26.7069 26.1456L18.9002 20.721L17.9457 22.0292ZM28.7606 13.7701L30.5903 17.2792L26.7775 19.2932L24.9478 15.784L23.5425 16.5798L27.9507 25.0345L29.3561 24.2387L27.5265 20.7297L31.3393 18.7158L33.1689 22.2248L34.618 21.5128L30.2097 13.0581L28.7606 13.7701ZM42.15 11.5152V15.4782H37.8441V11.5152L36.2323 11.5625V21.1107L37.8441 21.0633V17.1005H42.15V21.0633L43.7619 21.1107V11.5625L42.15 11.5152Z" fill="black"/>
<path d="M56.5352 3.45318L53.416 12.5613L51.9764 12.0151L49.8795 4.24921L47.7657 10.5649L46.207 10.0786L49.3262 0.970427L50.7968 1.42642L52.8937 9.19228L55.0074 2.87658L56.5352 3.45318ZM66.2081 9.77362L62.1639 15.0589L62.6951 7.031L61.4519 6.12089L55.5526 13.7199L56.8694 14.6874L60.9135 9.40217L60.3824 17.43L61.5671 18.4155L67.4664 10.8164L66.2081 9.77362ZM74.5688 19.944L69.0325 23.6261L72.1341 16.2061L71.2529 14.9405L63.2129 20.207L64.145 21.5508L69.6813 17.8687L66.5797 25.2887L67.3812 26.6065L75.4212 21.34L74.5688 19.944ZM79.1835 32.2857L72.755 33.9656L78.091 27.9576L77.6673 26.4736L68.3577 28.8368L68.8043 30.4114L75.2328 28.7314L69.8968 34.7395L70.2282 36.2469L79.5378 33.8837L79.1835 32.2857ZM79.5522 45.4613L72.9281 44.957L79.9202 41.012L80 39.4705L70.4297 38.6743L70.3422 40.3089L76.9663 40.8132L69.9742 44.7583L69.7996 46.2919L79.3699 47.088L79.5522 45.4613ZM75.6349 58.0431L69.533 55.4093L77.4237 53.9547L77.9982 52.5227L69.2042 48.6535L68.5922 50.171L74.6941 52.8049L66.8035 54.2595L66.1418 55.6532L74.9358 59.5224L75.6349 58.0431ZM67.8562 68.6677L62.9377 64.1897L70.8718 65.3832L71.8788 64.2159L64.814 57.6929L63.7439 58.929L68.6624 63.407L60.7283 62.2135L59.6512 63.3162L66.716 69.8392L67.8562 68.6677ZM57.0589 76.1839L53.8567 70.347L60.9745 74.0592L62.305 73.283L57.735 64.8131L56.3226 65.6337L59.5247 71.4706L52.4069 67.7584L51.0312 68.4506L55.6012 76.9206L57.0589 76.1839ZM44.413 79.7771L43.2742 73.2137L48.8044 79.0425L50.3141 78.7416L48.7341 69.2425L47.1325 69.5588L48.2713 76.1221L42.7411 70.2934L41.2158 70.5001L42.7958 79.9992L44.413 79.7771ZM31.2889 79.0579L32.3369 72.4794L35.6802 79.793L37.2056 80L38.7868 70.5011L37.1695 70.2788L36.1216 76.8573L32.7782 69.5437L31.2686 69.2426L29.6874 78.7415L31.2889 79.0579ZM19.1087 74.1044L22.2299 68.2236L23.0241 76.2296L24.3998 76.922L28.9708 68.4526L27.5132 67.7157L24.392 73.5966L23.5978 65.5906L22.2675 64.8142L17.6964 73.2836L19.1087 74.1044ZM9.19231 65.4533L14.0485 60.9074L12.2075 68.7382L13.2844 69.841L20.35 63.3189L19.21 62.1474L14.3538 66.6933L16.1948 58.8625L15.1879 57.695L8.12229 64.2171L9.19231 65.4533ZM2.61422 54.042L8.67916 51.3236L4.40244 58.1307L5.06397 59.5245L13.8585 55.6563L13.1595 54.177L7.09457 56.8955L11.3713 50.0884L10.7969 48.6563L2.00242 52.5244L2.61422 54.042ZM0.0872618 41.1071L6.70377 40.5108L0.454777 45.5565L0.629189 47.0902L10.1996 46.2952L10.0175 44.6685L3.40099 45.2648L9.64999 40.2191L9.57041 38.6776L0 39.4725L0.0872618 41.1071ZM1.88527 28.0503L8.33638 29.6406L0.792236 32.3783L0.460649 33.8856L9.76993 36.2499L10.1244 34.652L3.67328 33.0616L11.2174 30.324L11.6413 28.8401L2.33199 26.4758L1.88527 28.0503ZM7.81341 16.2862L13.4001 19.891L5.37828 20.0239L4.57662 21.3416L12.616 26.609L13.4686 25.2131L7.88197 21.6083L15.9037 21.4755L16.7851 20.21L8.74571 14.9425L7.81341 16.2862ZM17.2293 7.08989L21.3461 12.3184L13.7159 9.83209L12.5311 10.8174L18.4294 18.4171L19.6878 17.3744L15.571 12.1459L23.2011 14.6322L24.4444 13.7223L18.5461 6.12255L17.2293 7.08989ZM29.1126 1.4577L31.3135 7.74341L24.9017 2.90734L23.4621 3.45342L26.5802 12.562L28.108 11.9855L25.9071 5.69983L32.3188 10.5359L33.7894 10.0801L30.6713 0.97155L29.1126 1.4577ZM42.1757 0L42.2221 6.66177L37.7236 0L36.1851 0.0477184V9.67803L37.8167 9.63031L37.7703 2.96854L42.2688 9.63031L43.8073 9.67803V0.0477184L42.1757 0Z" fill="black"/>
</svg>
