<svg width="229" height="40" viewBox="0 0 229 40" fill="none" xmlns="http://www.w3.org/2000/svg">
<path d="M47.8291 25.8935H49.4337V16.9181L56.2196 25.8935H57.5902V14.1049H55.9856V23.1138L49.1997 14.1049H47.8291V25.8935ZM59.3285 21.7072C59.3285 24.219 61.167 26.0944 63.507 26.0944C64.8776 26.0944 66.0141 25.4581 66.6493 24.3529V25.8935H68.2204V17.5209H66.6493V19.028C66.0141 17.9563 64.8776 17.32 63.507 17.32C61.167 17.32 59.3285 19.1954 59.3285 21.7072ZM60.933 21.7072C60.933 19.9992 62.1699 18.76 63.8079 18.76C65.4124 18.76 66.6493 19.9992 66.6493 21.7072C66.6493 23.3817 65.4124 24.6544 63.8079 24.6544C62.1699 24.6544 60.933 23.3817 60.933 21.7072ZM69.4907 18.8605H70.9615V22.7454C70.9615 24.9558 72.1984 26.0944 73.9701 26.0944C74.4715 26.0944 75.0398 25.9605 75.6749 25.6591V24.3529C75.1735 24.6209 74.7389 24.7548 74.2041 24.7548C73.2346 24.7548 72.5327 24.085 72.5327 22.7119V18.8605H75.4743V17.5209H72.5327V15.0426H70.9615V17.5209H69.4907V18.8605ZM77.0121 22.6114C77.0121 24.7213 78.3492 26.0944 80.4552 26.0944C82.5612 26.0944 83.9317 24.7213 83.9317 22.6114V17.5209H82.3606V22.7119C82.3606 23.9511 81.6252 24.7548 80.4552 24.7548C79.3186 24.7548 78.5832 23.9511 78.5832 22.7119V17.5209H77.0121V22.6114ZM91.4865 21.7072C91.4865 24.219 93.3251 26.0944 95.6651 26.0944C97.0356 26.0944 98.1722 25.4581 98.8073 24.3529V25.8935H100.378V17.5209H98.8073V19.028C98.1722 17.9563 97.0356 17.32 95.6651 17.32C93.3251 17.32 91.4865 19.1954 91.4865 21.7072ZM93.0911 21.7072C93.0911 19.9992 94.3279 18.76 95.9659 18.76C97.5705 18.76 98.8073 19.9992 98.8073 21.7072C98.8073 23.3817 97.5705 24.6544 95.9659 24.6544C94.3279 24.6544 93.0911 23.3817 93.0911 21.7072ZM102.518 25.8935H104.089V14.1049H102.518V25.8935ZM85.8097 25.8935V17.5209H87.3808V19.1284C87.7485 18.0902 88.7179 17.32 89.8879 17.32C90.2556 17.32 90.6567 17.3534 91.0245 17.5209V18.9945C90.5899 18.827 90.1887 18.7935 89.7876 18.7935C88.7848 18.7935 87.3808 19.6978 87.3808 21.5732V25.8935H85.8097ZM171.93 25.8935H173.501V17.2865L176.175 22.2765H177.412L180.12 17.2195V25.8935H181.691V14.1049H180.186L176.877 20.3341L173.434 14.1049H171.93V25.8935ZM183.755 22.6114C183.755 24.7213 185.093 26.0944 187.199 26.0944C189.305 26.0944 190.675 24.7213 190.675 22.6114V17.5209H189.104V22.7119C189.104 23.951 188.369 24.7548 187.199 24.7548C186.062 24.7548 185.327 23.951 185.327 22.7119V17.5209H183.755V22.6114ZM192.146 25.2572C192.948 25.86 194.051 26.0944 194.887 26.0944C196.926 26.0944 198.13 25.1567 198.13 23.5826C198.13 22.377 197.528 21.5063 195.89 21.1044L194.82 20.8364C193.985 20.6355 193.684 20.2671 193.684 19.7647C193.684 19.1284 194.319 18.6596 195.322 18.6596C196.224 18.6596 197.06 18.9275 197.795 19.4298V17.9228C197.127 17.5544 196.191 17.3199 195.221 17.3199C193.617 17.3199 192.146 18.2912 192.146 19.8317C192.146 20.9034 192.748 21.8077 194.419 22.2095L195.388 22.444C196.258 22.6449 196.625 23.0133 196.625 23.6161C196.625 24.3529 195.99 24.7548 194.92 24.7548C194.018 24.7548 192.948 24.4534 192.146 23.7501V25.2572ZM217.483 25.8935V17.5209H219.096V18.5926C219.404 17.8223 220.193 17.3199 221.119 17.3199C222.08 17.3199 222.937 17.7888 223.349 18.7265C223.863 17.7553 224.721 17.3199 225.647 17.3199C227.293 17.3199 228.357 18.4921 228.357 20.3676V25.8935H226.745V20.2671C226.745 18.9275 225.99 18.6596 225.407 18.6596C224.412 18.6596 223.726 19.3964 223.726 20.3341V25.8935H222.114V20.3676C222.114 18.9945 221.394 18.6596 220.776 18.6596C219.782 18.6596 219.096 19.3964 219.096 20.3676V25.8935L217.483 25.8935ZM208.63 22.6114V17.5209H210.201V22.7119C210.201 23.951 210.937 24.7548 212.107 24.7548C213.243 24.7548 214.012 23.951 214.012 22.7119V17.5209H215.583V22.6114C215.583 24.7213 214.213 26.0944 212.107 26.0944C210.001 26.0944 208.63 24.7213 208.63 22.6114ZM207.062 21.5397C207.062 19.1284 205.825 17.3199 203.318 17.3199C200.911 17.3199 199.24 19.1954 199.24 21.7072C199.24 24.3194 201.011 26.0944 203.552 26.0944C205.023 26.0944 206.159 25.5921 206.828 24.9557V23.3817C206.126 24.219 205.023 24.7548 203.819 24.7548C202.014 24.7548 200.944 23.6161 200.777 22.0756H207.028C207.062 21.7742 207.062 21.6067 207.062 21.5397ZM200.844 20.803C201.078 19.4298 201.981 18.6596 203.251 18.6596C204.655 18.6596 205.457 19.5638 205.491 20.803H200.844ZM111.879 25.8926H113.484V20.6346H120.036V25.8926H121.64V14.104H120.036V19.1276H113.484V14.104H111.879V25.8926ZM123.464 15.2101C123.464 15.8129 123.932 16.2818 124.567 16.2818C125.202 16.2818 125.67 15.8129 125.67 15.2101C125.67 14.6073 125.202 14.1049 124.567 14.1049C123.932 14.1049 123.464 14.6072 123.464 15.2101ZM123.798 25.8935H125.37V17.5209H123.798V25.8935ZM127.242 25.2572C128.077 25.86 129.214 26.0944 130.083 26.0944C132.156 26.0944 133.426 25.1567 133.426 23.5827C133.426 22.377 132.791 21.5063 131.086 21.1044L129.983 20.8365C129.147 20.6355 128.813 20.2671 128.813 19.7648C128.813 19.1619 129.348 18.6931 130.284 18.6596C131.253 18.6261 132.189 18.894 132.991 19.4299V17.9228C132.323 17.5544 131.353 17.32 130.35 17.32C128.679 17.32 127.242 18.2912 127.242 19.8317C127.242 20.9034 127.843 21.8077 129.582 22.2096L130.584 22.444C131.487 22.6449 131.855 23.0133 131.855 23.6162C131.855 24.3195 131.253 24.7213 130.25 24.7548C129.281 24.7883 128.077 24.4869 127.242 23.7501V25.2572ZM134.094 18.8605H135.632V22.7454C135.632 24.9558 136.869 26.0944 138.641 26.0944C139.142 26.0944 139.71 25.9605 140.345 25.6591V24.3529C139.844 24.6209 139.409 24.7548 138.875 24.7548C137.905 24.7548 137.203 24.085 137.203 22.7119V18.8605H140.279V17.5209H137.203V15.0426H135.632V17.5209H134.094V18.8605ZM140.895 21.7072C140.895 24.1855 142.867 26.0944 145.375 26.0944C147.882 26.0944 149.821 24.1855 149.821 21.7072C149.821 19.2289 147.882 17.32 145.375 17.32C142.867 17.32 140.895 19.2289 140.895 21.7072ZM142.5 21.7072C142.5 20.0327 143.737 18.7601 145.375 18.7601C146.979 18.7601 148.216 20.0327 148.216 21.7072C148.216 23.4152 146.979 24.6544 145.375 24.6544C143.737 24.6544 142.5 23.4152 142.5 21.7072ZM151.358 25.8935H152.929V21.5732C152.929 19.6978 154.333 18.7935 155.336 18.7935C155.737 18.7935 156.138 18.827 156.573 18.9945V17.5209C156.205 17.3535 155.804 17.32 155.436 17.32C154.267 17.32 153.297 18.0902 152.929 19.1284V17.5209H151.358V25.8935ZM157.375 17.5209L161.052 25.7595C160.518 26.7978 159.816 27.3336 158.88 27.3336C158.478 27.3336 158.077 27.3001 157.643 27.1327V28.6062C158.01 28.7737 158.445 28.8072 158.813 28.8072C160.651 28.8072 161.788 27.6015 162.49 25.9605L166.1 17.5209H164.429L161.855 24.018L159.147 17.5209H157.375Z" fill="black"/>
<path d="M23.9829 19.0556L26.8833 17.3915L24.8228 17.5677L24.5137 17.0312L25.6962 15.3317L22.8075 17.016L22.4209 16.3928L26.5833 13.9852L26.9772 14.6211L25.5357 16.818L28.138 16.6353L28.4907 17.2951L24.3283 19.7027L23.9829 19.0556V19.0556ZM22.4226 23.5857L26.585 25.9933L26.9789 25.3574L25.5199 23.1909L28.1397 23.3432L28.4924 22.6835L24.33 20.2758L23.9847 20.9229L26.885 22.587L24.8246 22.4108L24.5154 22.9473L25.698 24.6469L22.8093 22.9625L22.4226 23.5857V23.5857ZM18.1133 23.8738V28.689L18.8599 28.7129L20.0031 26.3637L21.1814 28.7129L21.928 28.689V23.8738L21.1961 23.8976L21.2077 27.2461L20.3298 25.3703H19.7115L18.8336 27.2461L18.8452 23.8976L18.1133 23.8738H18.1133ZM15.7095 20.2789L11.5472 22.6865L11.8998 23.3462L14.5022 23.1635L13.0606 25.3605L13.4545 25.9963L17.6169 23.5887L17.2303 22.9655L14.3416 24.6499L15.5242 22.9503L15.215 22.4138L13.1546 22.5901L16.0549 20.9259L15.7095 20.2789V20.2789ZM17.6152 16.3959L13.4528 13.9882L13.0589 14.6241L14.5179 16.7906L11.8981 16.6384L11.5454 17.2981L15.7078 19.7057L16.0532 19.0587L13.1528 17.3945L15.2133 17.5707L15.5224 17.0342L14.3398 15.3347L17.2286 17.019L17.6152 16.3958V16.3959ZM21.9246 16.1078V11.2925L21.178 11.2687L20.0347 13.6179L18.8564 11.2687L18.1098 11.2925V16.1078L18.8418 16.0839L18.8301 12.7354L19.708 14.6112H20.3263L21.2042 12.7354L21.1926 16.0839L21.9246 16.1078H21.9246Z" fill="black"/>
<path d="M28.3606 8.19113L26.125 12.4537L25.4132 12.052L26.3411 10.2829L24.4099 9.26622L23.482 11.0353L22.748 10.6759L24.9836 6.41338L25.7176 6.77281L24.7897 8.54199L26.7209 9.55863L27.6488 7.78945L28.3606 8.19113ZM32.4343 12.7388L30.7921 13.8733L29.5536 12.0741L31.1958 10.9395L30.7126 10.2795L26.756 13.0131L27.2391 13.673L28.8813 12.5385L30.1198 14.3378L28.4776 15.4723L28.9216 16.1594L32.8783 13.4258L32.4343 12.7388ZM34.3761 19.3491L32.3957 19.5892L32.1336 17.4194L34.114 17.1793L33.9923 16.37L29.2208 16.9485L29.3426 17.7578L31.3229 17.5177L31.585 19.6875L29.6047 19.9276L29.6791 20.7427L34.4505 20.1642L34.3761 19.3491ZM33.0294 26.1064L31.1645 25.3971L31.9388 23.3538L33.8038 24.0631L34.0714 23.2898L29.5781 21.5807L29.3105 22.354L31.1754 23.0634L30.401 25.1067L28.5362 24.3973L28.224 25.1537L32.7173 26.8628L33.0294 26.1064ZM28.7028 31.4629L27.3805 29.9666L29.0138 28.5178L30.3362 30.0141L30.9318 29.4539L27.7459 25.8487L27.1502 26.4089L28.4725 27.9052L26.8391 29.354L25.5168 27.8577L24.8896 28.3822L28.0756 31.9874L28.7028 31.4629ZM22.3872 34.1917L21.9103 32.2511L24.0287 31.7286L24.5055 33.6692L25.2927 33.4505L24.1439 28.775L23.3566 28.9937L23.8334 30.9342L21.7151 31.4567L21.2383 29.5161L20.4397 29.6885L21.5886 34.3641L22.3872 34.1917ZM15.5292 33.6677L16.0071 31.7274L18.1251 32.2509L17.6472 34.1913L18.4458 34.3641L19.5971 29.6892L18.7986 29.5163L18.3207 31.4566L16.2027 30.9331L16.6805 28.9928L15.8934 28.7736L14.7421 33.4486L15.5292 33.6677ZM9.69964 30.011L11.0228 28.5154L12.6554 29.965L11.3323 31.4607L11.9592 31.9855L15.147 28.3819L14.5201 27.8571L13.197 29.3527L11.5644 27.9031L12.8875 26.4075L12.2921 25.847L9.1043 29.4505L9.69964 30.011ZM6.23379 24.0592L8.09912 23.3508L8.87238 25.3945L7.00706 26.1029L7.31878 26.8594L11.813 25.1527L11.5012 24.3961L9.63598 25.1045L8.86271 23.0608L10.728 22.3524L10.4608 21.5789L5.96661 23.2857L6.23379 24.0592ZM5.92551 17.1754L7.90578 17.4165L7.64256 19.5862L5.66229 19.345L5.5874 20.1601L10.3585 20.7411L10.4334 19.926L8.45321 19.6849L8.71643 17.5153L10.6966 17.7564L10.8188 16.9471L6.04768 16.3661L5.92551 17.1754ZM8.8454 10.9365L10.487 12.0719L9.24762 13.8705L7.60599 12.7351L7.16164 13.4219L11.1169 16.1576L11.5612 15.4708L9.91964 14.3354L11.1591 12.5367L12.8006 13.6721L13.2842 13.0124L9.32894 10.2768L8.8454 10.9365ZM14.3247 6.77145L15.2516 8.54111L13.3199 9.55674L12.3929 7.78707L11.6809 8.18837L13.9143 12.4521L14.6263 12.0508L13.6994 10.2812L15.6311 9.26554L16.5581 11.0351L17.2922 10.6761L15.0588 6.4124L14.3247 6.77145ZM21.1083 5.63428V7.63282H18.9267V5.63428L18.1101 5.65814V10.4733L18.9267 10.4494V8.45095H21.1083V10.4494L21.9249 10.4733V5.65814L21.1083 5.63428Z" fill="black"/>
<path d="M28.2949 1.72659L26.7338 6.28066L26.0133 6.00754L24.9638 2.12461L23.9059 5.28246L23.1258 5.03929L24.6869 0.485213L25.4229 0.713212L26.4724 4.59614L27.5303 1.43829L28.2949 1.72659V1.72659ZM33.136 4.88681L31.112 7.52943L31.3778 3.5155L30.7556 3.06044L27.8031 6.85995L28.4621 7.3437L30.4862 4.70108L30.2203 8.71502L30.8133 9.20773L33.7657 5.40822L33.136 4.88681ZM37.3204 9.97202L34.5496 11.8131L36.1019 8.10306L35.6609 7.47026L31.637 10.1035L32.1035 10.7754L34.8743 8.93436L33.322 12.6444L33.7231 13.3032L37.747 10.67L37.3204 9.97201V9.97202ZM39.63 16.1429L36.4126 16.9828L39.0832 13.9788L38.8712 13.2368L34.2119 14.4184L34.4354 15.2057L37.6527 14.3657L34.9821 17.3697L35.148 18.1234L39.8073 16.9418L39.63 16.1429ZM39.8145 22.7307L36.4992 22.4785L39.9987 20.506L40.0386 19.7352L35.2488 19.3372L35.2051 20.1545L38.5203 20.4066L35.0209 22.3792L34.9335 23.146L39.7233 23.544L39.8145 22.7307L39.8145 22.7307ZM37.854 29.0216L34.8001 27.7046L38.7492 26.9773L39.0368 26.2613L34.6355 24.3267L34.3292 25.0855L37.3831 26.4025L33.434 27.1298L33.1028 27.8266L37.5041 29.7612L37.854 29.0216ZM33.9609 34.3339L31.4992 32.0949L35.4701 32.6916L35.9741 32.1079L32.4383 28.8465L31.9027 29.4645L34.3644 31.7035L30.3935 31.1067L29.8544 31.6581L33.3902 34.9196L33.9609 34.3339ZM28.557 38.0919L26.9544 35.1735L30.5167 37.0296L31.1826 36.6415L28.8954 32.4065L28.1885 32.8169L29.7911 35.7353L26.2288 33.8792L25.5402 34.2253L27.8274 38.4603L28.557 38.0919ZM22.228 39.8885L21.658 36.6069L24.4258 39.5212L25.1814 39.3708L24.3906 34.6213L23.589 34.7794L24.159 38.0611L21.3912 35.1467L20.6278 35.2501L21.4186 39.9996L22.228 39.8885ZM15.6596 39.529L16.1841 36.2397L17.8574 39.8965L18.6207 40L19.4121 35.2506L18.6027 35.1394L18.0782 38.4287L16.4049 34.7718L15.6494 34.6213L14.858 39.3707L15.6596 39.529H15.6596ZM9.56359 37.0522L11.1257 34.1118L11.5232 38.1148L12.2117 38.461L14.4994 34.2263L13.7699 33.8579L12.2078 36.7983L11.8103 32.7953L11.1445 32.4071L8.85676 36.6418L9.56359 37.0522ZM4.60059 32.7267L7.03102 30.4537L6.10963 34.3691L6.64863 34.9205L10.1848 31.6595L9.61426 31.0737L7.18383 33.3466L8.10522 29.4312L7.60127 28.8475L4.06507 32.1086L4.6006 32.7267H4.60059ZM1.30837 27.021L4.34377 25.6618L2.20335 29.0654L2.53443 29.7622L6.93592 27.8282L6.58611 27.0885L3.55071 28.4477L5.69113 25.0442L5.40367 24.3281L1.00218 26.2622L1.30837 27.021ZM0.0436741 20.5536L3.35512 20.2554L0.227606 22.7783L0.3149 23.5451L5.10473 23.1476L5.01359 22.3342L1.70214 22.6324L4.82966 20.1095L4.78983 19.3388L0 19.7363L0.0436768 20.5536H0.0436741ZM0.943546 14.0251L4.17221 14.8203L0.396502 16.1891L0.230548 16.9428L4.88968 18.125L5.06708 17.326L1.83841 16.5308L5.61412 15.162L5.82625 14.4201L1.16712 13.2379L0.943543 14.0251L0.943546 14.0251ZM3.91048 8.14312L6.70649 9.9455L2.69174 10.0119L2.29052 10.6708L6.31408 13.3045L6.74081 12.6065L3.94479 10.8042L7.95955 10.7377L8.40064 10.105L4.37708 7.47127L3.91048 8.14312L3.91048 8.14312ZM8.62296 3.54494L10.6834 6.1592L6.86459 4.91604L6.27158 5.40868L9.22358 9.20855L9.85338 8.68722L7.79299 6.07297L11.6118 7.31612L12.234 6.86114L9.28202 3.06127L8.62296 3.54494H8.62296ZM14.5704 0.72885L15.6719 3.87171L12.4629 1.45367L11.7424 1.72671L13.3029 6.28098L14.0675 5.99277L12.966 2.84992L16.175 5.26795L16.911 5.04004L15.3505 0.485775L14.5704 0.72885ZM21.1082 0L21.1314 3.33089L18.88 0L18.11 0.0238591V4.83901L18.9266 4.81515L18.9034 1.48427L21.1548 4.81515L21.9248 4.83901V0.0238591L21.1082 0Z" fill="black"/>
</svg>
